<svg width="389" height="67" viewBox="0 0 389 67" fill="none" xmlns="http://www.w3.org/2000/svg">
<g clip-path="url(#clip0_1_31)">
<path d="M250.723 0H0V8.52727H250.723V0Z" fill="#416482"/>
<path d="M312.112 19.491H0V28.0182H312.112V19.491Z" fill="#3A4B83"/>
<path d="M263.183 38.9819H0V47.5092H263.183V38.9819Z" fill="#C41212"/>
<path d="M389 58.4727H144.355V66.9999H389V58.4727Z" fill="white"/>
<path d="M92.9953 43.2453L84.4859 58.4726H75.9766L67.4672 43.2453V66.9999H56.5266V24.3635H68.075L80.2312 46.8999L92.3875 24.3635H103.936V66.9999H92.9953V43.2453ZM122.194 58.4726H144.379V66.9999H111.253V24.3635H122.194V58.4726Z" fill="white"/>
<path d="M149.358 50.1586L149.441 48.638L147.838 48.5503V50.1586H149.358ZM166.674 50.2438L165.6 49.167L166.674 50.2438ZM167.27 44.829H168.79V43.3063H167.27V44.829ZM150.975 42.8251L149.889 43.8904L149.9 43.902L149.911 43.9132L150.975 42.8251ZM150.975 28.5419L152.049 29.6186L150.975 28.5419ZM172.418 26.4954H173.938V24.9727H172.418V26.4954ZM172.418 32.4645V33.9872H173.938V32.4645H172.418ZM172.971 54.8059L171.897 53.729L172.971 54.8059ZM162.249 56.6819L162.184 58.2031L162.19 58.2034L162.196 58.2037L162.249 56.6819ZM158.335 56.5114L158.261 58.0323L158.265 58.0326H158.269L158.335 56.5114ZM149.358 55.9145H147.838V57.3166L149.233 57.432L149.358 55.9145ZM149.275 51.6792C157.041 52.1052 162.343 52.3208 165.143 52.3208V49.2754C162.439 49.2754 157.218 49.0646 149.441 48.638L149.275 51.6792ZM165.143 52.3208C166.091 52.3208 167.027 52.0434 167.749 51.3207L165.6 49.167C165.584 49.1834 165.499 49.2754 165.143 49.2754V52.3208ZM167.749 51.3207C168.477 50.5907 168.79 49.6533 168.79 48.6663H165.75C165.75 48.9867 165.666 49.1012 165.6 49.167L167.749 51.3207ZM168.79 48.6663V44.829H165.75V48.6663H168.79ZM167.27 43.3063H157.484V46.3517H167.27V43.3063ZM157.484 43.3063C154.687 43.3063 152.991 42.6725 152.038 41.737L149.911 43.9132C151.681 45.6498 154.325 46.3517 157.484 46.3517V43.3063ZM152.06 41.7598C151.127 40.8044 150.494 39.1051 150.494 36.3017H147.455C147.455 39.4675 148.156 42.117 149.889 43.8904L152.06 41.7598ZM150.494 36.3017V35.0227H147.455V36.3017H150.494ZM150.494 35.0227C150.494 32.2154 151.128 30.5413 152.049 29.6186L149.9 27.4652C148.154 29.2146 147.455 31.8609 147.455 35.0227H150.494ZM152.049 29.6186C153.003 28.6628 154.694 28.0181 157.484 28.0181V24.9727C154.318 24.9727 151.669 25.6924 149.9 27.4652L152.049 29.6186ZM157.484 28.0181H172.418V24.9727H157.484V28.0181ZM170.899 26.4954V32.4645H173.938V26.4954H170.899ZM172.418 30.9417H159.186V33.9872H172.418V30.9417ZM159.186 30.9417C158.101 30.9417 157.008 31.2146 156.197 32.0271C155.386 32.84 155.114 33.9351 155.114 35.0227H158.153C158.153 34.4047 158.306 34.2208 158.346 34.1809C158.386 34.1407 158.569 33.9872 159.186 33.9872V30.9417ZM155.114 35.0227V35.8754H158.153V35.0227H155.114ZM155.114 35.8754C155.114 36.9629 155.386 38.0581 156.197 38.8709C157.008 39.6834 158.101 39.9563 159.186 39.9563V36.9108C158.569 36.9108 158.386 36.7573 158.346 36.7171C158.306 36.6773 158.153 36.4933 158.153 35.8754H155.114ZM159.186 39.9563H166.845V36.9108H159.186V39.9563ZM166.845 39.9563C169.423 39.9563 170.993 40.5663 171.897 41.4717L174.046 39.318C172.34 37.6086 169.826 36.9108 166.845 36.9108V39.9563ZM171.897 41.4717C172.8 42.3771 173.409 43.951 173.409 46.5345H176.448C176.448 43.5469 175.752 41.0277 174.046 39.318L171.897 41.4717ZM173.409 46.5345V48.6663H176.448V46.5345H173.409ZM173.409 48.6663C173.409 51.2497 172.8 52.8236 171.897 53.729L174.046 55.8828C175.752 54.1731 176.448 51.6539 176.448 48.6663H173.409ZM171.897 53.729C170.993 54.6345 169.423 55.2445 166.845 55.2445V58.2899C169.826 58.2899 172.34 57.5922 174.046 55.8828L171.897 53.729ZM166.845 55.2445C165.418 55.2445 163.904 55.2165 162.303 55.1601L162.196 58.2037C163.829 58.261 165.378 58.2899 166.845 58.2899V55.2445ZM162.315 55.1607L158.401 54.9902L158.269 58.0326L162.184 58.2031L162.315 55.1607ZM158.41 54.9905C155.534 54.8492 152.559 54.6515 149.483 54.3969L149.233 57.432C152.34 57.6891 155.35 57.8891 158.261 58.0323L158.41 54.9905ZM150.877 55.9145V50.1586H147.838V55.9145H150.877ZM202.368 56.3408V57.8636H203.887V56.3408H202.368ZM178.754 56.3408H177.235V57.8636H178.754V56.3408ZM178.754 26.4954V24.9727H177.235V26.4954H178.754ZM202.368 26.4954H203.887V24.9727H202.368V26.4954ZM202.368 32.4645V33.9872H203.887V32.4645H202.368ZM186.413 32.4645V30.9417H184.893V32.4645H186.413ZM186.413 38.2204H184.893V39.7431H186.413V38.2204ZM198.964 38.2204H200.484V36.6977H198.964V38.2204ZM198.964 44.1895V45.7122H200.484V44.1895H198.964ZM186.413 44.1895V42.6667H184.893V44.1895H186.413ZM186.413 50.3717H184.893V51.8945H186.413V50.3717ZM202.368 50.3717H203.887V48.849H202.368V50.3717ZM202.368 54.8181H178.754V57.8636H202.368V54.8181ZM180.274 56.3408V26.4954H177.235V56.3408H180.274ZM178.754 28.0181H202.368V24.9727H178.754V28.0181ZM200.848 26.4954V32.4645H203.887V26.4954H200.848ZM202.368 30.9417H186.413V33.9872H202.368V30.9417ZM184.893 32.4645V38.2204H187.932V32.4645H184.893ZM186.413 39.7431H198.964V36.6977H186.413V39.7431ZM197.445 38.2204V44.1895H200.484V38.2204H197.445ZM198.964 42.6667H186.413V45.7122H198.964V42.6667ZM184.893 44.1895V50.3717H187.932V44.1895H184.893ZM186.413 51.8945H202.368V48.849H186.413V51.8945ZM200.848 50.3717V56.3408H203.887V50.3717H200.848ZM205.762 26.4954V24.9727H204.242V26.4954H205.762ZM230.098 28.5419L229.013 29.6073L229.024 29.6187L229.035 29.6299L230.098 28.5419ZM230.949 44.36L229.651 43.5682L229.645 43.5786L229.639 43.5892L230.949 44.36ZM227.248 46.9608L226.879 45.4835L224.938 45.9698L225.927 47.7131L227.248 46.9608ZM232.566 56.3408V57.8636H235.177L233.887 55.5886L232.566 56.3408ZM224.269 56.3408L222.937 57.0723L223.369 57.8636H224.269V56.3408ZM219.377 47.3872L220.71 46.6557L220.277 45.8645H219.377V47.3872ZM213.42 47.3872V45.8645H211.9V47.3872H213.42ZM213.42 56.3408V57.8636H214.94V56.3408H213.42ZM205.762 56.3408H204.242V57.8636H205.762V56.3408ZM213.42 32.4645V30.9417H211.9V32.4645H213.42ZM213.42 41.4181H211.9V42.9408H213.42V41.4181ZM205.762 28.0181H223.631V24.9727H205.762V28.0181ZM223.631 28.0181C226.425 28.0181 228.091 28.6643 229.013 29.6073L231.184 27.4766C229.439 25.6909 226.794 24.9727 223.631 24.9727V28.0181ZM229.035 29.6299C229.977 30.5531 230.621 32.2227 230.621 35.0227H233.66C233.66 31.8536 232.944 29.2025 231.161 27.4539L229.035 29.6299ZM230.621 35.0227V38.8599H233.66V35.0227H230.621ZM230.621 38.8599C230.621 41.0788 230.242 42.5952 229.651 43.5682L232.247 45.1518C233.245 43.5097 233.66 41.3593 233.66 38.8599H230.621ZM229.639 43.5892C229.113 44.4873 228.254 45.1393 226.879 45.4835L227.616 48.4382C229.646 47.9296 231.254 46.8478 232.26 45.1308L229.639 43.5892ZM225.927 47.7131L231.245 57.0931L233.887 55.5886L228.569 46.2086L225.927 47.7131ZM232.566 54.8181H224.269V57.8636H232.566V54.8181ZM225.602 55.6093L220.71 46.6557L218.044 48.1187L222.937 57.0723L225.602 55.6093ZM219.377 45.8645H213.42V48.9099H219.377V45.8645ZM211.9 47.3872V56.3408H214.94V47.3872H211.9ZM213.42 54.8181H205.762V57.8636H213.42V54.8181ZM207.281 56.3408V26.4954H204.242V56.3408H207.281ZM226.002 35.0227C226.002 33.9351 225.729 32.84 224.919 32.0271C224.107 31.2146 223.015 30.9417 221.929 30.9417V33.9872C222.546 33.9872 222.73 34.1407 222.77 34.1809C222.809 34.2208 222.963 34.4047 222.963 35.0227H226.002ZM221.929 30.9417H213.42V33.9872H221.929V30.9417ZM211.9 32.4645V41.4181H214.94V32.4645H211.9ZM213.42 42.9408H221.929V39.8954H213.42V42.9408ZM221.929 42.9408C223.015 42.9408 224.107 42.668 224.919 41.8554C225.729 41.0426 226.002 39.9475 226.002 38.8599H222.963C222.963 39.4778 222.809 39.6618 222.77 39.7017C222.73 39.7419 222.546 39.8954 221.929 39.8954V42.9408ZM226.002 38.8599V35.0227H222.963V38.8599H226.002ZM248.935 47.3872L247.499 47.8863L248.935 52.0327L250.371 47.8863L248.935 47.3872ZM256.168 26.4954V24.9727H255.087L254.732 25.9963L256.168 26.4954ZM264.465 26.4954L265.886 27.0345L266.665 24.9727H264.465V26.4954ZM253.19 56.3408V57.8636H254.239L254.611 56.8799L253.19 56.3408ZM244.68 56.3408L243.259 56.8799L243.631 57.8636H244.68V56.3408ZM233.405 26.4954V24.9727H231.206L231.984 27.0345L233.405 26.4954ZM241.702 26.4954L243.138 25.9963L242.783 24.9727H241.702V26.4954ZM250.371 47.8863L257.604 26.9945L254.732 25.9963L247.499 46.888L250.371 47.8863ZM256.168 28.0181H264.465V24.9727H256.168V28.0181ZM263.044 25.9562L251.769 55.8018L254.611 56.8799L265.886 27.0345L263.044 25.9562ZM253.19 54.8181H244.68V57.8636H253.19V54.8181ZM246.101 55.8018L234.827 25.9562L231.984 27.0345L243.259 56.8799L246.101 55.8018ZM233.405 28.0181H241.702V24.9727H233.405V28.0181ZM240.266 26.9945L247.499 47.8863L250.371 46.888L243.138 25.9963L240.266 26.9945ZM280.631 56.3408V57.8636H282.151V56.3408H280.631ZM265.314 56.3408H263.795V57.8636H265.314V56.3408ZM265.314 50.3717V48.849H263.795V50.3717H265.314ZM269.143 50.3717V51.8945H270.663V50.3717H269.143ZM269.143 32.4645H270.663V30.9417H269.143V32.4645ZM265.314 32.4645H263.795V33.9872H265.314V32.4645ZM265.314 26.4954V24.9727H263.795V26.4954H265.314ZM280.631 26.4954H282.151V24.9727H280.631V26.4954ZM280.631 32.4645V33.9872H282.151V32.4645H280.631ZM276.802 32.4645V30.9417H275.282V32.4645H276.802ZM276.802 50.3717H275.282V51.8945H276.802V50.3717ZM280.631 50.3717H282.151V48.849H280.631V50.3717ZM280.631 54.8181H265.314V57.8636H280.631V54.8181ZM266.834 56.3408V50.3717H263.795V56.3408H266.834ZM265.314 51.8945H269.143V48.849H265.314V51.8945ZM270.663 50.3717V32.4645H267.624V50.3717H270.663ZM269.143 30.9417H265.314V33.9872H269.143V30.9417ZM266.834 32.4645V26.4954H263.795V32.4645H266.834ZM265.314 28.0181H280.631V24.9727H265.314V28.0181ZM279.111 26.4954V32.4645H282.151V26.4954H279.111ZM280.631 30.9417H276.802V33.9872H280.631V30.9417ZM275.282 32.4645V50.3717H278.321V32.4645H275.282ZM276.802 51.8945H280.631V48.849H276.802V51.8945ZM279.111 50.3717V56.3408H282.151V50.3717H279.111ZM307.432 55.9145L307.568 57.4311L308.951 57.3069V55.9145H307.432ZM285.563 54.8059L286.637 53.729L285.563 54.8059ZM285.606 28.5419L286.68 29.6186L285.606 28.5419ZM307.432 26.4954H308.951V24.9727H307.432V26.4954ZM307.432 32.4645V33.9872H308.951V32.4645H307.432ZM291.818 50.2438L290.704 51.2799L290.742 51.3213L290.783 51.3597L291.818 50.2438ZM295.264 50.7981V52.3208H295.294L295.324 52.3196L295.264 50.7981ZM297.476 50.7128L297.532 52.2346L297.476 50.7128ZM299.774 50.6276L299.719 49.1057H299.718L299.774 50.6276ZM302.795 50.457L302.691 48.9379H302.689L302.795 50.457ZM307.432 50.1586H308.951V48.5393L307.337 48.6386L307.432 50.1586ZM307.295 54.3978C300.995 54.964 295.797 55.2445 291.69 55.2445V58.2899C295.921 58.2899 301.218 58.0018 307.568 57.4311L307.295 54.3978ZM291.69 55.2445C289.112 55.2445 287.541 54.6345 286.637 53.729L284.489 55.8828C286.195 57.5922 288.708 58.2899 291.69 58.2899V55.2445ZM286.637 53.729C285.734 52.8236 285.126 51.2497 285.126 48.6663H282.086C282.086 51.6539 282.782 54.1731 284.489 55.8828L286.637 53.729ZM285.126 48.6663V35.0227H282.086V48.6663H285.126ZM285.126 35.0227C285.126 32.2154 285.759 30.5413 286.68 29.6186L284.531 27.4652C282.785 29.2146 282.086 31.8609 282.086 35.0227H285.126ZM286.68 29.6186C287.634 28.6628 289.325 28.0181 292.115 28.0181V24.9727C288.949 24.9727 286.3 25.6924 284.531 27.4652L286.68 29.6186ZM292.115 28.0181H307.432V24.9727H292.115V28.0181ZM305.912 26.4954V32.4645H308.951V26.4954H305.912ZM307.432 30.9417H293.817V33.9872H307.432V30.9417ZM293.817 30.9417C292.732 30.9417 291.639 31.2146 290.828 32.0271C290.017 32.84 289.745 33.9351 289.745 35.0227H292.784C292.784 34.4047 292.937 34.2208 292.977 34.1809C293.017 34.1407 293.2 33.9872 293.817 33.9872V30.9417ZM289.745 35.0227V48.6663H292.784V35.0227H289.745ZM289.745 48.6663C289.745 49.6216 290.023 50.545 290.704 51.2799L292.931 49.2078C292.874 49.1469 292.784 49.0186 292.784 48.6663H289.745ZM290.783 51.3597C291.49 52.0175 292.369 52.3208 293.307 52.3208V49.2754C293.053 49.2754 292.939 49.209 292.851 49.128L290.783 51.3597ZM293.307 52.3208C293.308 52.3208 293.309 52.3208 293.31 52.3208C293.311 52.3208 293.312 52.3208 293.314 52.3208C293.315 52.3208 293.316 52.3208 293.317 52.3208C293.318 52.3208 293.319 52.3208 293.321 52.3208C293.322 52.3208 293.323 52.3208 293.324 52.3208C293.325 52.3208 293.326 52.3208 293.328 52.3208C293.329 52.3208 293.33 52.3208 293.331 52.3208C293.332 52.3208 293.333 52.3208 293.335 52.3208C293.336 52.3208 293.337 52.3208 293.338 52.3208C293.339 52.3208 293.34 52.3208 293.342 52.3208C293.343 52.3208 293.344 52.3208 293.345 52.3208C293.346 52.3208 293.347 52.3208 293.349 52.3208C293.35 52.3208 293.351 52.3208 293.352 52.3208C293.353 52.3208 293.354 52.3208 293.356 52.3208C293.357 52.3208 293.358 52.3208 293.359 52.3208C293.36 52.3208 293.361 52.3208 293.363 52.3208C293.364 52.3208 293.365 52.3208 293.366 52.3208C293.367 52.3208 293.368 52.3208 293.37 52.3208C293.371 52.3208 293.372 52.3208 293.373 52.3208C293.374 52.3208 293.375 52.3208 293.377 52.3208C293.378 52.3208 293.379 52.3208 293.38 52.3208C293.381 52.3208 293.382 52.3208 293.384 52.3208C293.385 52.3208 293.386 52.3208 293.387 52.3208C293.388 52.3208 293.39 52.3208 293.391 52.3208C293.392 52.3208 293.393 52.3208 293.394 52.3208C293.395 52.3208 293.397 52.3208 293.398 52.3208C293.399 52.3208 293.4 52.3208 293.401 52.3208C293.402 52.3208 293.404 52.3208 293.405 52.3208C293.406 52.3208 293.407 52.3208 293.408 52.3208C293.409 52.3208 293.411 52.3208 293.412 52.3208C293.413 52.3208 293.414 52.3208 293.415 52.3208C293.417 52.3208 293.418 52.3208 293.419 52.3208C293.42 52.3208 293.421 52.3208 293.422 52.3208C293.424 52.3208 293.425 52.3208 293.426 52.3208C293.427 52.3208 293.428 52.3208 293.429 52.3208C293.431 52.3208 293.432 52.3208 293.433 52.3208C293.434 52.3208 293.436 52.3208 293.436 52.3208C293.438 52.3208 293.439 52.3208 293.44 52.3208C293.441 52.3208 293.442 52.3208 293.444 52.3208C293.445 52.3208 293.446 52.3208 293.447 52.3208C293.448 52.3208 293.449 52.3208 293.451 52.3208C293.452 52.3208 293.453 52.3208 293.454 52.3208C293.456 52.3208 293.456 52.3208 293.458 52.3208C293.459 52.3208 293.46 52.3208 293.461 52.3208C293.463 52.3208 293.464 52.3208 293.465 52.3208C293.466 52.3208 293.467 52.3208 293.468 52.3208C293.47 52.3208 293.471 52.3208 293.472 52.3208C293.473 52.3208 293.474 52.3208 293.476 52.3208C293.477 52.3208 293.478 52.3208 293.479 52.3208C293.48 52.3208 293.481 52.3208 293.483 52.3208C293.484 52.3208 293.485 52.3208 293.486 52.3208C293.487 52.3208 293.489 52.3208 293.49 52.3208C293.491 52.3208 293.492 52.3208 293.493 52.3208C293.494 52.3208 293.496 52.3208 293.497 52.3208C293.498 52.3208 293.499 52.3208 293.501 52.3208C293.502 52.3208 293.503 52.3208 293.504 52.3208C293.505 52.3208 293.506 52.3208 293.508 52.3208C293.509 52.3208 293.51 52.3208 293.511 52.3208C293.512 52.3208 293.514 52.3208 293.515 52.3208C293.516 52.3208 293.517 52.3208 293.518 52.3208C293.519 52.3208 293.521 52.3208 293.522 52.3208C293.523 52.3208 293.524 52.3208 293.525 52.3208C293.527 52.3208 293.528 52.3208 293.529 52.3208C293.53 52.3208 293.531 52.3208 293.532 52.3208C293.534 52.3208 293.535 52.3208 293.536 52.3208C293.537 52.3208 293.539 52.3208 293.54 52.3208C293.541 52.3208 293.542 52.3208 293.543 52.3208C293.545 52.3208 293.546 52.3208 293.547 52.3208C293.548 52.3208 293.549 52.3208 293.55 52.3208C293.552 52.3208 293.553 52.3208 293.554 52.3208C293.555 52.3208 293.556 52.3208 293.558 52.3208C293.559 52.3208 293.56 52.3208 293.561 52.3208C293.562 52.3208 293.563 52.3208 293.565 52.3208C293.566 52.3208 293.567 52.3208 293.568 52.3208C293.57 52.3208 293.571 52.3208 293.572 52.3208C293.573 52.3208 293.574 52.3208 293.576 52.3208C293.577 52.3208 293.578 52.3208 293.579 52.3208C293.58 52.3208 293.581 52.3208 293.583 52.3208C293.584 52.3208 293.585 52.3208 293.586 52.3208C293.587 52.3208 293.589 52.3208 293.59 52.3208C293.591 52.3208 293.592 52.3208 293.594 52.3208C293.595 52.3208 293.596 52.3208 293.597 52.3208C293.598 52.3208 293.6 52.3208 293.601 52.3208C293.602 52.3208 293.603 52.3208 293.604 52.3208C293.605 52.3208 293.607 52.3208 293.608 52.3208C293.609 52.3208 293.61 52.3208 293.611 52.3208C293.613 52.3208 293.614 52.3208 293.615 52.3208C293.616 52.3208 293.618 52.3208 293.619 52.3208C293.62 52.3208 293.621 52.3208 293.622 52.3208C293.624 52.3208 293.625 52.3208 293.626 52.3208C293.627 52.3208 293.628 52.3208 293.629 52.3208C293.631 52.3208 293.632 52.3208 293.633 52.3208C293.634 52.3208 293.635 52.3208 293.637 52.3208C293.638 52.3208 293.639 52.3208 293.64 52.3208C293.642 52.3208 293.643 52.3208 293.644 52.3208C293.645 52.3208 293.646 52.3208 293.648 52.3208C293.649 52.3208 293.65 52.3208 293.651 52.3208C293.652 52.3208 293.654 52.3208 293.655 52.3208C293.656 52.3208 293.657 52.3208 293.658 52.3208C293.659 52.3208 293.661 52.3208 293.662 52.3208C293.663 52.3208 293.664 52.3208 293.666 52.3208C293.667 52.3208 293.668 52.3208 293.669 52.3208C293.67 52.3208 293.672 52.3208 293.673 52.3208C293.674 52.3208 293.675 52.3208 293.676 52.3208C293.678 52.3208 293.679 52.3208 293.68 52.3208C293.681 52.3208 293.683 52.3208 293.684 52.3208C293.685 52.3208 293.686 52.3208 293.687 52.3208C293.689 52.3208 293.69 52.3208 293.691 52.3208C293.692 52.3208 293.694 52.3208 293.695 52.3208C293.696 52.3208 293.697 52.3208 293.698 52.3208C293.7 52.3208 293.701 52.3208 293.702 52.3208C293.703 52.3208 293.704 52.3208 293.706 52.3208C293.707 52.3208 293.708 52.3208 293.709 52.3208C293.711 52.3208 293.712 52.3208 293.713 52.3208C293.714 52.3208 293.715 52.3208 293.717 52.3208C293.718 52.3208 293.719 52.3208 293.72 52.3208C293.721 52.3208 293.722 52.3208 293.724 52.3208C293.725 52.3208 293.726 52.3208 293.727 52.3208C293.728 52.3208 293.73 52.3208 293.731 52.3208C293.732 52.3208 293.733 52.3208 293.735 52.3208C293.736 52.3208 293.737 52.3208 293.738 52.3208C293.739 52.3208 293.741 52.3208 293.742 52.3208C293.743 52.3208 293.744 52.3208 293.745 52.3208C293.747 52.3208 293.748 52.3208 293.749 52.3208C293.75 52.3208 293.752 52.3208 293.753 52.3208C293.754 52.3208 293.756 52.3208 293.757 52.3208C293.758 52.3208 293.759 52.3208 293.76 52.3208C293.762 52.3208 293.763 52.3208 293.764 52.3208C293.765 52.3208 293.766 52.3208 293.768 52.3208C293.769 52.3208 293.77 52.3208 293.771 52.3208C293.773 52.3208 293.774 52.3208 293.775 52.3208C293.776 52.3208 293.777 52.3208 293.779 52.3208C293.78 52.3208 293.781 52.3208 293.782 52.3208C293.783 52.3208 293.785 52.3208 293.786 52.3208C293.787 52.3208 293.788 52.3208 293.79 52.3208C293.791 52.3208 293.792 52.3208 293.793 52.3208C293.794 52.3208 293.796 52.3208 293.797 52.3208C293.798 52.3208 293.799 52.3208 293.8 52.3208C293.802 52.3208 293.803 52.3208 293.804 52.3208C293.805 52.3208 293.807 52.3208 293.808 52.3208C293.809 52.3208 293.81 52.3208 293.811 52.3208C293.813 52.3208 293.814 52.3208 293.815 52.3208C293.816 52.3208 293.818 52.3208 293.819 52.3208C293.82 52.3208 293.821 52.3208 293.823 52.3208C293.824 52.3208 293.825 52.3208 293.826 52.3208C293.828 52.3208 293.829 52.3208 293.83 52.3208C293.831 52.3208 293.832 52.3208 293.834 52.3208C293.835 52.3208 293.836 52.3208 293.837 52.3208C293.838 52.3208 293.84 52.3208 293.841 52.3208C293.842 52.3208 293.843 52.3208 293.845 52.3208C293.846 52.3208 293.847 52.3208 293.848 52.3208C293.849 52.3208 293.851 52.3208 293.852 52.3208C293.853 52.3208 293.855 52.3208 293.856 52.3208C293.857 52.3208 293.858 52.3208 293.859 52.3208C293.861 52.3208 293.862 52.3208 293.863 52.3208C293.864 52.3208 293.866 52.3208 293.867 52.3208C293.868 52.3208 293.869 52.3208 293.87 52.3208C293.872 52.3208 293.873 52.3208 293.874 52.3208C293.875 52.3208 293.877 52.3208 293.878 52.3208C293.879 52.3208 293.88 52.3208 293.882 52.3208C293.883 52.3208 293.884 52.3208 293.885 52.3208C293.887 52.3208 293.888 52.3208 293.889 52.3208C293.89 52.3208 293.891 52.3208 293.893 52.3208C293.894 52.3208 293.895 52.3208 293.896 52.3208C293.898 52.3208 293.899 52.3208 293.9 52.3208C293.901 52.3208 293.903 52.3208 293.904 52.3208C293.905 52.3208 293.906 52.3208 293.907 52.3208C293.909 52.3208 293.91 52.3208 293.911 52.3208C293.912 52.3208 293.914 52.3208 293.915 52.3208C293.916 52.3208 293.917 52.3208 293.919 52.3208C293.92 52.3208 293.921 52.3208 293.922 52.3208C293.924 52.3208 293.925 52.3208 293.926 52.3208C293.927 52.3208 293.928 52.3208 293.93 52.3208C293.931 52.3208 293.932 52.3208 293.934 52.3208C293.935 52.3208 293.936 52.3208 293.937 52.3208C293.938 52.3208 293.94 52.3208 293.941 52.3208C293.942 52.3208 293.943 52.3208 293.945 52.3208C293.946 52.3208 293.947 52.3208 293.948 52.3208C293.95 52.3208 293.951 52.3208 293.952 52.3208C293.953 52.3208 293.955 52.3208 293.956 52.3208C293.957 52.3208 293.958 52.3208 293.959 52.3208C293.961 52.3208 293.962 52.3208 293.963 52.3208C293.965 52.3208 293.966 52.3208 293.967 52.3208C293.968 52.3208 293.969 52.3208 293.971 52.3208C293.972 52.3208 293.973 52.3208 293.974 52.3208C293.976 52.3208 293.977 52.3208 293.978 52.3208C293.979 52.3208 293.981 52.3208 293.982 52.3208C293.983 52.3208 293.984 52.3208 293.986 52.3208C293.987 52.3208 293.988 52.3208 293.989 52.3208C293.991 52.3208 293.992 52.3208 293.993 52.3208C293.994 52.3208 293.996 52.3208 293.997 52.3208C293.998 52.3208 293.999 52.3208 294 52.3208C294.002 52.3208 294.003 52.3208 294.004 52.3208C294.006 52.3208 294.007 52.3208 294.008 52.3208C294.009 52.3208 294.01 52.3208 294.012 52.3208C294.013 52.3208 294.014 52.3208 294.016 52.3208C294.017 52.3208 294.018 52.3208 294.019 52.3208C294.021 52.3208 294.022 52.3208 294.023 52.3208C294.024 52.3208 294.025 52.3208 294.027 52.3208C294.028 52.3208 294.029 52.3208 294.031 52.3208C294.032 52.3208 294.033 52.3208 294.034 52.3208C294.035 52.3208 294.037 52.3208 294.038 52.3208C294.039 52.3208 294.041 52.3208 294.042 52.3208C294.043 52.3208 294.044 52.3208 294.045 52.3208C294.047 52.3208 294.048 52.3208 294.049 52.3208C294.051 52.3208 294.052 52.3208 294.053 52.3208C294.054 52.3208 294.055 52.3208 294.057 52.3208C294.058 52.3208 294.059 52.3208 294.061 52.3208C294.062 52.3208 294.063 52.3208 294.064 52.3208C294.066 52.3208 294.067 52.3208 294.068 52.3208C294.069 52.3208 294.071 52.3208 294.072 52.3208C294.073 52.3208 294.074 52.3208 294.076 52.3208C294.077 52.3208 294.078 52.3208 294.079 52.3208C294.081 52.3208 294.082 52.3208 294.083 52.3208C294.084 52.3208 294.086 52.3208 294.087 52.3208C294.088 52.3208 294.09 52.3208 294.091 52.3208C294.092 52.3208 294.093 52.3208 294.094 52.3208C294.096 52.3208 294.097 52.3208 294.098 52.3208C294.1 52.3208 294.101 52.3208 294.102 52.3208C294.103 52.3208 294.104 52.3208 294.106 52.3208C294.107 52.3208 294.108 52.3208 294.11 52.3208C294.111 52.3208 294.112 52.3208 294.113 52.3208C294.115 52.3208 294.116 52.3208 294.117 52.3208C294.118 52.3208 294.12 52.3208 294.121 52.3208C294.122 52.3208 294.124 52.3208 294.125 52.3208C294.126 52.3208 294.127 52.3208 294.128 52.3208C294.13 52.3208 294.131 52.3208 294.132 52.3208C294.134 52.3208 294.135 52.3208 294.136 52.3208C294.137 52.3208 294.138 52.3208 294.14 52.3208C294.141 52.3208 294.142 52.3208 294.144 52.3208C294.145 52.3208 294.146 52.3208 294.147 52.3208C294.149 52.3208 294.15 52.3208 294.151 52.3208C294.152 52.3208 294.154 52.3208 294.155 52.3208C294.156 52.3208 294.158 52.3208 294.159 52.3208C294.16 52.3208 294.161 52.3208 294.162 52.3208C294.164 52.3208 294.165 52.3208 294.166 52.3208C294.168 52.3208 294.169 52.3208 294.17 52.3208C294.172 52.3208 294.173 52.3208 294.174 52.3208C294.175 52.3208 294.176 52.3208 294.178 52.3208C294.179 52.3208 294.18 52.3208 294.182 52.3208C294.183 52.3208 294.184 52.3208 294.185 52.3208C294.187 52.3208 294.188 52.3208 294.189 52.3208C294.19 52.3208 294.192 52.3208 294.193 52.3208C294.194 52.3208 294.196 52.3208 294.197 52.3208C294.198 52.3208 294.199 52.3208 294.2 52.3208C294.202 52.3208 294.203 52.3208 294.204 52.3208C294.206 52.3208 294.207 52.3208 294.208 52.3208C294.21 52.3208 294.211 52.3208 294.212 52.3208C294.213 52.3208 294.214 52.3208 294.216 52.3208C294.217 52.3208 294.218 52.3208 294.22 52.3208C294.221 52.3208 294.222 52.3208 294.224 52.3208C294.225 52.3208 294.226 52.3208 294.227 52.3208C294.228 52.3208 294.23 52.3208 294.231 52.3208C294.232 52.3208 294.234 52.3208 294.235 52.3208C294.236 52.3208 294.238 52.3208 294.239 52.3208C294.24 52.3208 294.241 52.3208 294.243 52.3208C294.244 52.3208 294.245 52.3208 294.246 52.3208C294.248 52.3208 294.249 52.3208 294.25 52.3208C294.251 52.3208 294.253 52.3208 294.254 52.3208C294.255 52.3208 294.257 52.3208 294.258 52.3208C294.259 52.3208 294.26 52.3208 294.262 52.3208C294.263 52.3208 294.264 52.3208 294.265 52.3208C294.267 52.3208 294.268 52.3208 294.269 52.3208C294.271 52.3208 294.272 52.3208 294.273 52.3208C294.275 52.3208 294.276 52.3208 294.277 52.3208C294.278 52.3208 294.279 52.3208 294.281 52.3208C294.282 52.3208 294.283 52.3208 294.285 52.3208C294.286 52.3208 294.287 52.3208 294.289 52.3208C294.29 52.3208 294.291 52.3208 294.292 52.3208C294.294 52.3208 294.295 52.3208 294.296 52.3208C294.297 52.3208 294.299 52.3208 294.3 52.3208C294.301 52.3208 294.303 52.3208 294.304 52.3208C294.305 52.3208 294.307 52.3208 294.308 52.3208C294.309 52.3208 294.31 52.3208 294.312 52.3208C294.313 52.3208 294.314 52.3208 294.315 52.3208C294.317 52.3208 294.318 52.3208 294.319 52.3208C294.32 52.3208 294.322 52.3208 294.323 52.3208C294.324 52.3208 294.326 52.3208 294.327 52.3208C294.328 52.3208 294.33 52.3208 294.331 52.3208C294.332 52.3208 294.333 52.3208 294.335 52.3208C294.336 52.3208 294.337 52.3208 294.338 52.3208C294.34 52.3208 294.341 52.3208 294.342 52.3208C294.344 52.3208 294.345 52.3208 294.346 52.3208C294.348 52.3208 294.349 52.3208 294.35 52.3208C294.351 52.3208 294.353 52.3208 294.354 52.3208C294.355 52.3208 294.357 52.3208 294.358 52.3208C294.359 52.3208 294.36 52.3208 294.362 52.3208C294.363 52.3208 294.364 52.3208 294.365 52.3208C294.367 52.3208 294.368 52.3208 294.369 52.3208C294.371 52.3208 294.372 52.3208 294.373 52.3208C294.375 52.3208 294.376 52.3208 294.377 52.3208C294.379 52.3208 294.38 52.3208 294.381 52.3208C294.382 52.3208 294.384 52.3208 294.385 52.3208C294.386 52.3208 294.387 52.3208 294.389 52.3208C294.39 52.3208 294.391 52.3208 294.393 52.3208C294.394 52.3208 294.395 52.3208 294.396 52.3208C294.398 52.3208 294.399 52.3208 294.4 52.3208C294.402 52.3208 294.403 52.3208 294.404 52.3208C294.406 52.3208 294.407 52.3208 294.408 52.3208C294.41 52.3208 294.411 52.3208 294.412 52.3208C294.413 52.3208 294.415 52.3208 294.416 52.3208C294.417 52.3208 294.418 52.3208 294.42 52.3208C294.421 52.3208 294.422 52.3208 294.424 52.3208C294.425 52.3208 294.426 52.3208 294.427 52.3208C294.429 52.3208 294.43 52.3208 294.431 52.3208C294.433 52.3208 294.434 52.3208 294.435 52.3208C294.437 52.3208 294.438 52.3208 294.439 52.3208C294.441 52.3208 294.442 52.3208 294.443 52.3208C294.444 52.3208 294.446 52.3208 294.447 52.3208C294.448 52.3208 294.45 52.3208 294.451 52.3208C294.452 52.3208 294.454 52.3208 294.455 52.3208C294.456 52.3208 294.457 52.3208 294.459 52.3208C294.46 52.3208 294.461 52.3208 294.462 52.3208C294.464 52.3208 294.465 52.3208 294.466 52.3208C294.468 52.3208 294.469 52.3208 294.47 52.3208C294.472 52.3208 294.473 52.3208 294.474 52.3208C294.475 52.3208 294.477 52.3208 294.478 52.3208C294.479 52.3208 294.481 52.3208 294.482 52.3208C294.483 52.3208 294.485 52.3208 294.486 52.3208C294.487 52.3208 294.489 52.3208 294.49 52.3208C294.491 52.3208 294.492 52.3208 294.494 52.3208C294.495 52.3208 294.496 52.3208 294.498 52.3208C294.499 52.3208 294.5 52.3208 294.502 52.3208C294.503 52.3208 294.504 52.3208 294.506 52.3208C294.507 52.3208 294.508 52.3208 294.51 52.3208C294.511 52.3208 294.512 52.3208 294.513 52.3208C294.515 52.3208 294.516 52.3208 294.517 52.3208C294.519 52.3208 294.52 52.3208 294.521 52.3208C294.523 52.3208 294.524 52.3208 294.525 52.3208C294.526 52.3208 294.528 52.3208 294.529 52.3208C294.53 52.3208 294.532 52.3208 294.533 52.3208C294.534 52.3208 294.536 52.3208 294.537 52.3208C294.538 52.3208 294.539 52.3208 294.541 52.3208C294.542 52.3208 294.543 52.3208 294.545 52.3208C294.546 52.3208 294.547 52.3208 294.549 52.3208C294.55 52.3208 294.551 52.3208 294.552 52.3208C294.554 52.3208 294.555 52.3208 294.556 52.3208C294.558 52.3208 294.559 52.3208 294.56 52.3208C294.562 52.3208 294.563 52.3208 294.564 52.3208C294.566 52.3208 294.567 52.3208 294.568 52.3208C294.57 52.3208 294.571 52.3208 294.572 52.3208C294.573 52.3208 294.575 52.3208 294.576 52.3208C294.577 52.3208 294.579 52.3208 294.58 52.3208C294.581 52.3208 294.583 52.3208 294.584 52.3208C294.585 52.3208 294.587 52.3208 294.588 52.3208C294.589 52.3208 294.591 52.3208 294.592 52.3208C294.593 52.3208 294.595 52.3208 294.596 52.3208C294.597 52.3208 294.599 52.3208 294.6 52.3208C294.601 52.3208 294.602 52.3208 294.604 52.3208C294.605 52.3208 294.606 52.3208 294.608 52.3208C294.609 52.3208 294.61 52.3208 294.612 52.3208C294.613 52.3208 294.614 52.3208 294.616 52.3208C294.617 52.3208 294.618 52.3208 294.62 52.3208C294.621 52.3208 294.622 52.3208 294.623 52.3208C294.625 52.3208 294.626 52.3208 294.627 52.3208C294.629 52.3208 294.63 52.3208 294.631 52.3208C294.633 52.3208 294.634 52.3208 294.635 52.3208C294.637 52.3208 294.638 52.3208 294.639 52.3208C294.641 52.3208 294.642 52.3208 294.643 52.3208C294.644 52.3208 294.646 52.3208 294.647 52.3208C294.648 52.3208 294.65 52.3208 294.651 52.3208C294.652 52.3208 294.654 52.3208 294.655 52.3208C294.656 52.3208 294.658 52.3208 294.659 52.3208C294.66 52.3208 294.662 52.3208 294.663 52.3208C294.664 52.3208 294.666 52.3208 294.667 52.3208C294.668 52.3208 294.67 52.3208 294.671 52.3208C294.672 52.3208 294.674 52.3208 294.675 52.3208C294.676 52.3208 294.678 52.3208 294.679 52.3208C294.68 52.3208 294.682 52.3208 294.683 52.3208C294.684 52.3208 294.685 52.3208 294.687 52.3208C294.688 52.3208 294.689 52.3208 294.691 52.3208C294.692 52.3208 294.693 52.3208 294.695 52.3208C294.696 52.3208 294.697 52.3208 294.699 52.3208C294.7 52.3208 294.701 52.3208 294.703 52.3208C294.704 52.3208 294.705 52.3208 294.707 52.3208C294.708 52.3208 294.709 52.3208 294.711 52.3208C294.712 52.3208 294.713 52.3208 294.715 52.3208C294.716 52.3208 294.717 52.3208 294.719 52.3208C294.72 52.3208 294.721 52.3208 294.723 52.3208C294.724 52.3208 294.725 52.3208 294.727 52.3208C294.728 52.3208 294.729 52.3208 294.73 52.3208C294.732 52.3208 294.733 52.3208 294.734 52.3208C294.736 52.3208 294.737 52.3208 294.738 52.3208C294.74 52.3208 294.741 52.3208 294.743 52.3208C294.744 52.3208 294.745 52.3208 294.747 52.3208C294.748 52.3208 294.749 52.3208 294.751 52.3208C294.752 52.3208 294.753 52.3208 294.754 52.3208C294.756 52.3208 294.757 52.3208 294.758 52.3208C294.76 52.3208 294.761 52.3208 294.762 52.3208C294.764 52.3208 294.765 52.3208 294.766 52.3208C294.768 52.3208 294.769 52.3208 294.771 52.3208C294.772 52.3208 294.773 52.3208 294.775 52.3208C294.776 52.3208 294.777 52.3208 294.778 52.3208C294.78 52.3208 294.781 52.3208 294.782 52.3208C294.784 52.3208 294.785 52.3208 294.786 52.3208C294.788 52.3208 294.789 52.3208 294.79 52.3208C294.792 52.3208 294.793 52.3208 294.795 52.3208C294.796 52.3208 294.797 52.3208 294.799 52.3208C294.8 52.3208 294.801 52.3208 294.802 52.3208C294.804 52.3208 294.805 52.3208 294.806 52.3208C294.808 52.3208 294.809 52.3208 294.81 52.3208C294.812 52.3208 294.813 52.3208 294.815 52.3208C294.816 52.3208 294.817 52.3208 294.819 52.3208C294.82 52.3208 294.821 52.3208 294.823 52.3208C294.824 52.3208 294.825 52.3208 294.826 52.3208C294.828 52.3208 294.829 52.3208 294.83 52.3208C294.832 52.3208 294.833 52.3208 294.835 52.3208C294.836 52.3208 294.837 52.3208 294.839 52.3208C294.84 52.3208 294.841 52.3208 294.843 52.3208C294.844 52.3208 294.845 52.3208 294.847 52.3208C294.848 52.3208 294.849 52.3208 294.85 52.3208C294.852 52.3208 294.853 52.3208 294.855 52.3208C294.856 52.3208 294.857 52.3208 294.859 52.3208C294.86 52.3208 294.861 52.3208 294.863 52.3208C294.864 52.3208 294.865 52.3208 294.867 52.3208C294.868 52.3208 294.869 52.3208 294.871 52.3208C294.872 52.3208 294.874 52.3208 294.875 52.3208C294.876 52.3208 294.878 52.3208 294.879 52.3208C294.88 52.3208 294.882 52.3208 294.883 52.3208C294.884 52.3208 294.885 52.3208 294.887 52.3208C294.888 52.3208 294.89 52.3208 294.891 52.3208C294.892 52.3208 294.894 52.3208 294.895 52.3208C294.896 52.3208 294.898 52.3208 294.899 52.3208C294.9 52.3208 294.902 52.3208 294.903 52.3208C294.904 52.3208 294.906 52.3208 294.907 52.3208C294.909 52.3208 294.91 52.3208 294.911 52.3208C294.912 52.3208 294.914 52.3208 294.915 52.3208C294.916 52.3208 294.918 52.3208 294.919 52.3208C294.921 52.3208 294.922 52.3208 294.923 52.3208C294.925 52.3208 294.926 52.3208 294.927 52.3208C294.929 52.3208 294.93 52.3208 294.931 52.3208C294.933 52.3208 294.934 52.3208 294.935 52.3208C294.937 52.3208 294.938 52.3208 294.94 52.3208C294.941 52.3208 294.942 52.3208 294.943 52.3208C294.945 52.3208 294.946 52.3208 294.947 52.3208C294.949 52.3208 294.95 52.3208 294.952 52.3208C294.953 52.3208 294.954 52.3208 294.956 52.3208C294.957 52.3208 294.958 52.3208 294.96 52.3208C294.961 52.3208 294.962 52.3208 294.964 52.3208C294.965 52.3208 294.967 52.3208 294.968 52.3208C294.969 52.3208 294.971 52.3208 294.972 52.3208C294.973 52.3208 294.975 52.3208 294.976 52.3208C294.977 52.3208 294.979 52.3208 294.98 52.3208C294.981 52.3208 294.983 52.3208 294.984 52.3208C294.985 52.3208 294.987 52.3208 294.988 52.3208C294.99 52.3208 294.991 52.3208 294.992 52.3208C294.994 52.3208 294.995 52.3208 294.996 52.3208C294.998 52.3208 294.999 52.3208 295 52.3208C295.002 52.3208 295.003 52.3208 295.005 52.3208C295.006 52.3208 295.007 52.3208 295.009 52.3208C295.01 52.3208 295.011 52.3208 295.013 52.3208C295.014 52.3208 295.015 52.3208 295.017 52.3208C295.018 52.3208 295.019 52.3208 295.021 52.3208C295.022 52.3208 295.023 52.3208 295.025 52.3208C295.026 52.3208 295.028 52.3208 295.029 52.3208C295.03 52.3208 295.032 52.3208 295.033 52.3208C295.034 52.3208 295.036 52.3208 295.037 52.3208C295.039 52.3208 295.04 52.3208 295.041 52.3208C295.043 52.3208 295.044 52.3208 295.045 52.3208C295.047 52.3208 295.048 52.3208 295.049 52.3208C295.051 52.3208 295.052 52.3208 295.053 52.3208C295.055 52.3208 295.056 52.3208 295.057 52.3208C295.059 52.3208 295.06 52.3208 295.062 52.3208C295.063 52.3208 295.064 52.3208 295.066 52.3208C295.067 52.3208 295.068 52.3208 295.07 52.3208C295.071 52.3208 295.073 52.3208 295.074 52.3208C295.075 52.3208 295.077 52.3208 295.078 52.3208C295.079 52.3208 295.081 52.3208 295.082 52.3208C295.084 52.3208 295.085 52.3208 295.086 52.3208C295.088 52.3208 295.089 52.3208 295.09 52.3208C295.092 52.3208 295.093 52.3208 295.095 52.3208C295.096 52.3208 295.097 52.3208 295.098 52.3208C295.1 52.3208 295.101 52.3208 295.103 52.3208C295.104 52.3208 295.105 52.3208 295.107 52.3208C295.108 52.3208 295.109 52.3208 295.111 52.3208C295.112 52.3208 295.114 52.3208 295.115 52.3208C295.116 52.3208 295.118 52.3208 295.119 52.3208C295.12 52.3208 295.122 52.3208 295.123 52.3208C295.125 52.3208 295.126 52.3208 295.127 52.3208C295.129 52.3208 295.13 52.3208 295.131 52.3208C295.133 52.3208 295.134 52.3208 295.136 52.3208C295.137 52.3208 295.138 52.3208 295.14 52.3208C295.141 52.3208 295.142 52.3208 295.144 52.3208C295.145 52.3208 295.146 52.3208 295.148 52.3208C295.149 52.3208 295.15 52.3208 295.152 52.3208C295.153 52.3208 295.155 52.3208 295.156 52.3208C295.157 52.3208 295.159 52.3208 295.16 52.3208C295.162 52.3208 295.163 52.3208 295.164 52.3208C295.166 52.3208 295.167 52.3208 295.168 52.3208C295.17 52.3208 295.171 52.3208 295.173 52.3208C295.174 52.3208 295.175 52.3208 295.177 52.3208C295.178 52.3208 295.179 52.3208 295.181 52.3208C295.182 52.3208 295.184 52.3208 295.185 52.3208C295.186 52.3208 295.188 52.3208 295.189 52.3208C295.191 52.3208 295.192 52.3208 295.193 52.3208C295.195 52.3208 295.196 52.3208 295.197 52.3208C295.199 52.3208 295.2 52.3208 295.202 52.3208C295.203 52.3208 295.204 52.3208 295.206 52.3208C295.207 52.3208 295.208 52.3208 295.21 52.3208C295.211 52.3208 295.212 52.3208 295.214 52.3208C295.215 52.3208 295.217 52.3208 295.218 52.3208C295.219 52.3208 295.221 52.3208 295.222 52.3208C295.224 52.3208 295.225 52.3208 295.226 52.3208C295.228 52.3208 295.229 52.3208 295.23 52.3208C295.232 52.3208 295.233 52.3208 295.235 52.3208C295.236 52.3208 295.237 52.3208 295.239 52.3208C295.24 52.3208 295.242 52.3208 295.243 52.3208C295.244 52.3208 295.246 52.3208 295.247 52.3208C295.248 52.3208 295.25 52.3208 295.251 52.3208C295.253 52.3208 295.254 52.3208 295.255 52.3208C295.257 52.3208 295.258 52.3208 295.26 52.3208C295.261 52.3208 295.262 52.3208 295.264 52.3208V49.2754C295.262 49.2754 295.261 49.2754 295.26 49.2754C295.258 49.2754 295.257 49.2754 295.255 49.2754C295.254 49.2754 295.253 49.2754 295.251 49.2754C295.25 49.2754 295.248 49.2754 295.247 49.2754C295.246 49.2754 295.244 49.2754 295.243 49.2754C295.242 49.2754 295.24 49.2754 295.239 49.2754C295.237 49.2754 295.236 49.2754 295.235 49.2754C295.233 49.2754 295.232 49.2754 295.23 49.2754C295.229 49.2754 295.228 49.2754 295.226 49.2754C295.225 49.2754 295.224 49.2754 295.222 49.2754C295.221 49.2754 295.219 49.2754 295.218 49.2754C295.217 49.2754 295.215 49.2754 295.214 49.2754C295.212 49.2754 295.211 49.2754 295.21 49.2754C295.208 49.2754 295.207 49.2754 295.206 49.2754C295.204 49.2754 295.203 49.2754 295.202 49.2754C295.2 49.2754 295.199 49.2754 295.197 49.2754C295.196 49.2754 295.195 49.2754 295.193 49.2754C295.192 49.2754 295.191 49.2754 295.189 49.2754C295.188 49.2754 295.186 49.2754 295.185 49.2754C295.184 49.2754 295.182 49.2754 295.181 49.2754C295.179 49.2754 295.178 49.2754 295.177 49.2754C295.175 49.2754 295.174 49.2754 295.173 49.2754C295.171 49.2754 295.17 49.2754 295.168 49.2754C295.167 49.2754 295.166 49.2754 295.164 49.2754C295.163 49.2754 295.162 49.2754 295.16 49.2754C295.159 49.2754 295.157 49.2754 295.156 49.2754C295.155 49.2754 295.153 49.2754 295.152 49.2754C295.15 49.2754 295.149 49.2754 295.148 49.2754C295.146 49.2754 295.145 49.2754 295.144 49.2754C295.142 49.2754 295.141 49.2754 295.14 49.2754C295.138 49.2754 295.137 49.2754 295.136 49.2754C295.134 49.2754 295.133 49.2754 295.131 49.2754C295.13 49.2754 295.129 49.2754 295.127 49.2754C295.126 49.2754 295.125 49.2754 295.123 49.2754C295.122 49.2754 295.12 49.2754 295.119 49.2754C295.118 49.2754 295.116 49.2754 295.115 49.2754C295.114 49.2754 295.112 49.2754 295.111 49.2754C295.109 49.2754 295.108 49.2754 295.107 49.2754C295.105 49.2754 295.104 49.2754 295.103 49.2754C295.101 49.2754 295.1 49.2754 295.098 49.2754C295.097 49.2754 295.096 49.2754 295.095 49.2754C295.093 49.2754 295.092 49.2754 295.09 49.2754C295.089 49.2754 295.088 49.2754 295.086 49.2754C295.085 49.2754 295.084 49.2754 295.082 49.2754C295.081 49.2754 295.079 49.2754 295.078 49.2754C295.077 49.2754 295.075 49.2754 295.074 49.2754C295.073 49.2754 295.071 49.2754 295.07 49.2754C295.068 49.2754 295.067 49.2754 295.066 49.2754C295.064 49.2754 295.063 49.2754 295.062 49.2754C295.06 49.2754 295.059 49.2754 295.057 49.2754C295.056 49.2754 295.055 49.2754 295.053 49.2754C295.052 49.2754 295.051 49.2754 295.049 49.2754C295.048 49.2754 295.047 49.2754 295.045 49.2754C295.044 49.2754 295.043 49.2754 295.041 49.2754C295.04 49.2754 295.039 49.2754 295.037 49.2754C295.036 49.2754 295.034 49.2754 295.033 49.2754C295.032 49.2754 295.03 49.2754 295.029 49.2754C295.028 49.2754 295.026 49.2754 295.025 49.2754C295.023 49.2754 295.022 49.2754 295.021 49.2754C295.019 49.2754 295.018 49.2754 295.017 49.2754C295.015 49.2754 295.014 49.2754 295.013 49.2754C295.011 49.2754 295.01 49.2754 295.009 49.2754C295.007 49.2754 295.006 49.2754 295.005 49.2754C295.003 49.2754 295.002 49.2754 295 49.2754C294.999 49.2754 294.998 49.2754 294.996 49.2754C294.995 49.2754 294.994 49.2754 294.992 49.2754C294.991 49.2754 294.99 49.2754 294.988 49.2754C294.987 49.2754 294.985 49.2754 294.984 49.2754C294.983 49.2754 294.981 49.2754 294.98 49.2754C294.979 49.2754 294.977 49.2754 294.976 49.2754C294.975 49.2754 294.973 49.2754 294.972 49.2754C294.971 49.2754 294.969 49.2754 294.968 49.2754C294.967 49.2754 294.965 49.2754 294.964 49.2754C294.962 49.2754 294.961 49.2754 294.96 49.2754C294.958 49.2754 294.957 49.2754 294.956 49.2754C294.954 49.2754 294.953 49.2754 294.952 49.2754C294.95 49.2754 294.949 49.2754 294.947 49.2754C294.946 49.2754 294.945 49.2754 294.943 49.2754C294.942 49.2754 294.941 49.2754 294.94 49.2754C294.938 49.2754 294.937 49.2754 294.935 49.2754C294.934 49.2754 294.933 49.2754 294.931 49.2754C294.93 49.2754 294.929 49.2754 294.927 49.2754C294.926 49.2754 294.925 49.2754 294.923 49.2754C294.922 49.2754 294.921 49.2754 294.919 49.2754C294.918 49.2754 294.916 49.2754 294.915 49.2754C294.914 49.2754 294.912 49.2754 294.911 49.2754C294.91 49.2754 294.909 49.2754 294.907 49.2754C294.906 49.2754 294.904 49.2754 294.903 49.2754C294.902 49.2754 294.9 49.2754 294.899 49.2754C294.898 49.2754 294.896 49.2754 294.895 49.2754C294.894 49.2754 294.892 49.2754 294.891 49.2754C294.89 49.2754 294.888 49.2754 294.887 49.2754C294.885 49.2754 294.884 49.2754 294.883 49.2754C294.882 49.2754 294.88 49.2754 294.879 49.2754C294.878 49.2754 294.876 49.2754 294.875 49.2754C294.874 49.2754 294.872 49.2754 294.871 49.2754C294.869 49.2754 294.868 49.2754 294.867 49.2754C294.865 49.2754 294.864 49.2754 294.863 49.2754C294.861 49.2754 294.86 49.2754 294.859 49.2754C294.857 49.2754 294.856 49.2754 294.855 49.2754C294.853 49.2754 294.852 49.2754 294.85 49.2754C294.849 49.2754 294.848 49.2754 294.847 49.2754C294.845 49.2754 294.844 49.2754 294.843 49.2754C294.841 49.2754 294.84 49.2754 294.839 49.2754C294.837 49.2754 294.836 49.2754 294.835 49.2754C294.833 49.2754 294.832 49.2754 294.83 49.2754C294.829 49.2754 294.828 49.2754 294.826 49.2754C294.825 49.2754 294.824 49.2754 294.823 49.2754C294.821 49.2754 294.82 49.2754 294.819 49.2754C294.817 49.2754 294.816 49.2754 294.815 49.2754C294.813 49.2754 294.812 49.2754 294.81 49.2754C294.809 49.2754 294.808 49.2754 294.806 49.2754C294.805 49.2754 294.804 49.2754 294.802 49.2754C294.801 49.2754 294.8 49.2754 294.799 49.2754C294.797 49.2754 294.796 49.2754 294.795 49.2754C294.793 49.2754 294.792 49.2754 294.79 49.2754C294.789 49.2754 294.788 49.2754 294.786 49.2754C294.785 49.2754 294.784 49.2754 294.782 49.2754C294.781 49.2754 294.78 49.2754 294.778 49.2754C294.777 49.2754 294.776 49.2754 294.775 49.2754C294.773 49.2754 294.772 49.2754 294.771 49.2754C294.769 49.2754 294.768 49.2754 294.766 49.2754C294.765 49.2754 294.764 49.2754 294.762 49.2754C294.761 49.2754 294.76 49.2754 294.758 49.2754C294.757 49.2754 294.756 49.2754 294.754 49.2754C294.753 49.2754 294.752 49.2754 294.751 49.2754C294.749 49.2754 294.748 49.2754 294.747 49.2754C294.745 49.2754 294.744 49.2754 294.743 49.2754C294.741 49.2754 294.74 49.2754 294.738 49.2754C294.737 49.2754 294.736 49.2754 294.734 49.2754C294.733 49.2754 294.732 49.2754 294.73 49.2754C294.729 49.2754 294.728 49.2754 294.727 49.2754C294.725 49.2754 294.724 49.2754 294.723 49.2754C294.721 49.2754 294.72 49.2754 294.719 49.2754C294.717 49.2754 294.716 49.2754 294.715 49.2754C294.713 49.2754 294.712 49.2754 294.711 49.2754C294.709 49.2754 294.708 49.2754 294.707 49.2754C294.705 49.2754 294.704 49.2754 294.703 49.2754C294.701 49.2754 294.7 49.2754 294.699 49.2754C294.697 49.2754 294.696 49.2754 294.695 49.2754C294.693 49.2754 294.692 49.2754 294.691 49.2754C294.689 49.2754 294.688 49.2754 294.687 49.2754C294.685 49.2754 294.684 49.2754 294.683 49.2754C294.682 49.2754 294.68 49.2754 294.679 49.2754C294.678 49.2754 294.676 49.2754 294.675 49.2754C294.674 49.2754 294.672 49.2754 294.671 49.2754C294.67 49.2754 294.668 49.2754 294.667 49.2754C294.666 49.2754 294.664 49.2754 294.663 49.2754C294.662 49.2754 294.66 49.2754 294.659 49.2754C294.658 49.2754 294.656 49.2754 294.655 49.2754C294.654 49.2754 294.652 49.2754 294.651 49.2754C294.65 49.2754 294.648 49.2754 294.647 49.2754C294.646 49.2754 294.644 49.2754 294.643 49.2754C294.642 49.2754 294.641 49.2754 294.639 49.2754C294.638 49.2754 294.637 49.2754 294.635 49.2754C294.634 49.2754 294.633 49.2754 294.631 49.2754C294.63 49.2754 294.629 49.2754 294.627 49.2754C294.626 49.2754 294.625 49.2754 294.623 49.2754C294.622 49.2754 294.621 49.2754 294.62 49.2754C294.618 49.2754 294.617 49.2754 294.616 49.2754C294.614 49.2754 294.613 49.2754 294.612 49.2754C294.61 49.2754 294.609 49.2754 294.608 49.2754C294.606 49.2754 294.605 49.2754 294.604 49.2754C294.602 49.2754 294.601 49.2754 294.6 49.2754C294.599 49.2754 294.597 49.2754 294.596 49.2754C294.595 49.2754 294.593 49.2754 294.592 49.2754C294.591 49.2754 294.589 49.2754 294.588 49.2754C294.587 49.2754 294.585 49.2754 294.584 49.2754C294.583 49.2754 294.581 49.2754 294.58 49.2754C294.579 49.2754 294.577 49.2754 294.576 49.2754C294.575 49.2754 294.573 49.2754 294.572 49.2754C294.571 49.2754 294.57 49.2754 294.568 49.2754C294.567 49.2754 294.566 49.2754 294.564 49.2754C294.563 49.2754 294.562 49.2754 294.56 49.2754C294.559 49.2754 294.558 49.2754 294.556 49.2754C294.555 49.2754 294.554 49.2754 294.552 49.2754C294.551 49.2754 294.55 49.2754 294.549 49.2754C294.547 49.2754 294.546 49.2754 294.545 49.2754C294.543 49.2754 294.542 49.2754 294.541 49.2754C294.539 49.2754 294.538 49.2754 294.537 49.2754C294.536 49.2754 294.534 49.2754 294.533 49.2754C294.532 49.2754 294.53 49.2754 294.529 49.2754C294.528 49.2754 294.526 49.2754 294.525 49.2754C294.524 49.2754 294.523 49.2754 294.521 49.2754C294.52 49.2754 294.519 49.2754 294.517 49.2754C294.516 49.2754 294.515 49.2754 294.513 49.2754C294.512 49.2754 294.511 49.2754 294.51 49.2754C294.508 49.2754 294.507 49.2754 294.506 49.2754C294.504 49.2754 294.503 49.2754 294.502 49.2754C294.5 49.2754 294.499 49.2754 294.498 49.2754C294.496 49.2754 294.495 49.2754 294.494 49.2754C294.492 49.2754 294.491 49.2754 294.49 49.2754C294.489 49.2754 294.487 49.2754 294.486 49.2754C294.485 49.2754 294.483 49.2754 294.482 49.2754C294.481 49.2754 294.479 49.2754 294.478 49.2754C294.477 49.2754 294.475 49.2754 294.474 49.2754C294.473 49.2754 294.472 49.2754 294.47 49.2754C294.469 49.2754 294.468 49.2754 294.466 49.2754C294.465 49.2754 294.464 49.2754 294.462 49.2754C294.461 49.2754 294.46 49.2754 294.459 49.2754C294.457 49.2754 294.456 49.2754 294.455 49.2754C294.454 49.2754 294.452 49.2754 294.451 49.2754C294.45 49.2754 294.448 49.2754 294.447 49.2754C294.446 49.2754 294.444 49.2754 294.443 49.2754C294.442 49.2754 294.441 49.2754 294.439 49.2754C294.438 49.2754 294.437 49.2754 294.435 49.2754C294.434 49.2754 294.433 49.2754 294.431 49.2754C294.43 49.2754 294.429 49.2754 294.427 49.2754C294.426 49.2754 294.425 49.2754 294.424 49.2754C294.422 49.2754 294.421 49.2754 294.42 49.2754C294.418 49.2754 294.417 49.2754 294.416 49.2754C294.415 49.2754 294.413 49.2754 294.412 49.2754C294.411 49.2754 294.41 49.2754 294.408 49.2754C294.407 49.2754 294.406 49.2754 294.404 49.2754C294.403 49.2754 294.402 49.2754 294.4 49.2754C294.399 49.2754 294.398 49.2754 294.396 49.2754C294.395 49.2754 294.394 49.2754 294.393 49.2754C294.391 49.2754 294.39 49.2754 294.389 49.2754C294.387 49.2754 294.386 49.2754 294.385 49.2754C294.384 49.2754 294.382 49.2754 294.381 49.2754C294.38 49.2754 294.379 49.2754 294.377 49.2754C294.376 49.2754 294.375 49.2754 294.373 49.2754C294.372 49.2754 294.371 49.2754 294.369 49.2754C294.368 49.2754 294.367 49.2754 294.365 49.2754C294.364 49.2754 294.363 49.2754 294.362 49.2754C294.36 49.2754 294.359 49.2754 294.358 49.2754C294.357 49.2754 294.355 49.2754 294.354 49.2754C294.353 49.2754 294.351 49.2754 294.35 49.2754C294.349 49.2754 294.348 49.2754 294.346 49.2754C294.345 49.2754 294.344 49.2754 294.342 49.2754C294.341 49.2754 294.34 49.2754 294.338 49.2754C294.337 49.2754 294.336 49.2754 294.335 49.2754C294.333 49.2754 294.332 49.2754 294.331 49.2754C294.33 49.2754 294.328 49.2754 294.327 49.2754C294.326 49.2754 294.324 49.2754 294.323 49.2754C294.322 49.2754 294.32 49.2754 294.319 49.2754C294.318 49.2754 294.317 49.2754 294.315 49.2754C294.314 49.2754 294.313 49.2754 294.312 49.2754C294.31 49.2754 294.309 49.2754 294.308 49.2754C294.307 49.2754 294.305 49.2754 294.304 49.2754C294.303 49.2754 294.301 49.2754 294.3 49.2754C294.299 49.2754 294.297 49.2754 294.296 49.2754C294.295 49.2754 294.294 49.2754 294.292 49.2754C294.291 49.2754 294.29 49.2754 294.289 49.2754C294.287 49.2754 294.286 49.2754 294.285 49.2754C294.283 49.2754 294.282 49.2754 294.281 49.2754C294.279 49.2754 294.278 49.2754 294.277 49.2754C294.276 49.2754 294.275 49.2754 294.273 49.2754C294.272 49.2754 294.271 49.2754 294.269 49.2754C294.268 49.2754 294.267 49.2754 294.265 49.2754C294.264 49.2754 294.263 49.2754 294.262 49.2754C294.26 49.2754 294.259 49.2754 294.258 49.2754C294.257 49.2754 294.255 49.2754 294.254 49.2754C294.253 49.2754 294.251 49.2754 294.25 49.2754C294.249 49.2754 294.248 49.2754 294.246 49.2754C294.245 49.2754 294.244 49.2754 294.243 49.2754C294.241 49.2754 294.24 49.2754 294.239 49.2754C294.238 49.2754 294.236 49.2754 294.235 49.2754C294.234 49.2754 294.232 49.2754 294.231 49.2754C294.23 49.2754 294.228 49.2754 294.227 49.2754C294.226 49.2754 294.225 49.2754 294.224 49.2754C294.222 49.2754 294.221 49.2754 294.22 49.2754C294.218 49.2754 294.217 49.2754 294.216 49.2754C294.214 49.2754 294.213 49.2754 294.212 49.2754C294.211 49.2754 294.21 49.2754 294.208 49.2754C294.207 49.2754 294.206 49.2754 294.204 49.2754C294.203 49.2754 294.202 49.2754 294.2 49.2754C294.199 49.2754 294.198 49.2754 294.197 49.2754C294.196 49.2754 294.194 49.2754 294.193 49.2754C294.192 49.2754 294.19 49.2754 294.189 49.2754C294.188 49.2754 294.187 49.2754 294.185 49.2754C294.184 49.2754 294.183 49.2754 294.182 49.2754C294.18 49.2754 294.179 49.2754 294.178 49.2754C294.176 49.2754 294.175 49.2754 294.174 49.2754C294.173 49.2754 294.172 49.2754 294.17 49.2754C294.169 49.2754 294.168 49.2754 294.166 49.2754C294.165 49.2754 294.164 49.2754 294.162 49.2754C294.161 49.2754 294.16 49.2754 294.159 49.2754C294.158 49.2754 294.156 49.2754 294.155 49.2754C294.154 49.2754 294.152 49.2754 294.151 49.2754C294.15 49.2754 294.149 49.2754 294.147 49.2754C294.146 49.2754 294.145 49.2754 294.144 49.2754C294.142 49.2754 294.141 49.2754 294.14 49.2754C294.138 49.2754 294.137 49.2754 294.136 49.2754C294.135 49.2754 294.134 49.2754 294.132 49.2754C294.131 49.2754 294.13 49.2754 294.128 49.2754C294.127 49.2754 294.126 49.2754 294.125 49.2754C294.124 49.2754 294.122 49.2754 294.121 49.2754C294.12 49.2754 294.118 49.2754 294.117 49.2754C294.116 49.2754 294.115 49.2754 294.113 49.2754C294.112 49.2754 294.111 49.2754 294.11 49.2754C294.108 49.2754 294.107 49.2754 294.106 49.2754C294.104 49.2754 294.103 49.2754 294.102 49.2754C294.101 49.2754 294.1 49.2754 294.098 49.2754C294.097 49.2754 294.096 49.2754 294.094 49.2754C294.093 49.2754 294.092 49.2754 294.091 49.2754C294.09 49.2754 294.088 49.2754 294.087 49.2754C294.086 49.2754 294.084 49.2754 294.083 49.2754C294.082 49.2754 294.081 49.2754 294.079 49.2754C294.078 49.2754 294.077 49.2754 294.076 49.2754C294.074 49.2754 294.073 49.2754 294.072 49.2754C294.071 49.2754 294.069 49.2754 294.068 49.2754C294.067 49.2754 294.066 49.2754 294.064 49.2754C294.063 49.2754 294.062 49.2754 294.061 49.2754C294.059 49.2754 294.058 49.2754 294.057 49.2754C294.055 49.2754 294.054 49.2754 294.053 49.2754C294.052 49.2754 294.051 49.2754 294.049 49.2754C294.048 49.2754 294.047 49.2754 294.045 49.2754C294.044 49.2754 294.043 49.2754 294.042 49.2754C294.041 49.2754 294.039 49.2754 294.038 49.2754C294.037 49.2754 294.035 49.2754 294.034 49.2754C294.033 49.2754 294.032 49.2754 294.031 49.2754C294.029 49.2754 294.028 49.2754 294.027 49.2754C294.025 49.2754 294.024 49.2754 294.023 49.2754C294.022 49.2754 294.021 49.2754 294.019 49.2754C294.018 49.2754 294.017 49.2754 294.016 49.2754C294.014 49.2754 294.013 49.2754 294.012 49.2754C294.01 49.2754 294.009 49.2754 294.008 49.2754C294.007 49.2754 294.006 49.2754 294.004 49.2754C294.003 49.2754 294.002 49.2754 294 49.2754C293.999 49.2754 293.998 49.2754 293.997 49.2754C293.996 49.2754 293.994 49.2754 293.993 49.2754C293.992 49.2754 293.991 49.2754 293.989 49.2754C293.988 49.2754 293.987 49.2754 293.986 49.2754C293.984 49.2754 293.983 49.2754 293.982 49.2754C293.981 49.2754 293.979 49.2754 293.978 49.2754C293.977 49.2754 293.976 49.2754 293.974 49.2754C293.973 49.2754 293.972 49.2754 293.971 49.2754C293.969 49.2754 293.968 49.2754 293.967 49.2754C293.966 49.2754 293.965 49.2754 293.963 49.2754C293.962 49.2754 293.961 49.2754 293.959 49.2754C293.958 49.2754 293.957 49.2754 293.956 49.2754C293.955 49.2754 293.953 49.2754 293.952 49.2754C293.951 49.2754 293.95 49.2754 293.948 49.2754C293.947 49.2754 293.946 49.2754 293.945 49.2754C293.943 49.2754 293.942 49.2754 293.941 49.2754C293.94 49.2754 293.938 49.2754 293.937 49.2754C293.936 49.2754 293.935 49.2754 293.934 49.2754C293.932 49.2754 293.931 49.2754 293.93 49.2754C293.928 49.2754 293.927 49.2754 293.926 49.2754C293.925 49.2754 293.924 49.2754 293.922 49.2754C293.921 49.2754 293.92 49.2754 293.919 49.2754C293.917 49.2754 293.916 49.2754 293.915 49.2754C293.914 49.2754 293.912 49.2754 293.911 49.2754C293.91 49.2754 293.909 49.2754 293.907 49.2754C293.906 49.2754 293.905 49.2754 293.904 49.2754C293.903 49.2754 293.901 49.2754 293.9 49.2754C293.899 49.2754 293.898 49.2754 293.896 49.2754C293.895 49.2754 293.894 49.2754 293.893 49.2754C293.891 49.2754 293.89 49.2754 293.889 49.2754C293.888 49.2754 293.887 49.2754 293.885 49.2754C293.884 49.2754 293.883 49.2754 293.882 49.2754C293.88 49.2754 293.879 49.2754 293.878 49.2754C293.877 49.2754 293.875 49.2754 293.874 49.2754C293.873 49.2754 293.872 49.2754 293.87 49.2754C293.869 49.2754 293.868 49.2754 293.867 49.2754C293.866 49.2754 293.864 49.2754 293.863 49.2754C293.862 49.2754 293.861 49.2754 293.859 49.2754C293.858 49.2754 293.857 49.2754 293.856 49.2754C293.855 49.2754 293.853 49.2754 293.852 49.2754C293.851 49.2754 293.849 49.2754 293.848 49.2754C293.847 49.2754 293.846 49.2754 293.845 49.2754C293.843 49.2754 293.842 49.2754 293.841 49.2754C293.84 49.2754 293.838 49.2754 293.837 49.2754C293.836 49.2754 293.835 49.2754 293.834 49.2754C293.832 49.2754 293.831 49.2754 293.83 49.2754C293.829 49.2754 293.828 49.2754 293.826 49.2754C293.825 49.2754 293.824 49.2754 293.823 49.2754C293.821 49.2754 293.82 49.2754 293.819 49.2754C293.818 49.2754 293.816 49.2754 293.815 49.2754C293.814 49.2754 293.813 49.2754 293.811 49.2754C293.81 49.2754 293.809 49.2754 293.808 49.2754C293.807 49.2754 293.805 49.2754 293.804 49.2754C293.803 49.2754 293.802 49.2754 293.8 49.2754C293.799 49.2754 293.798 49.2754 293.797 49.2754C293.796 49.2754 293.794 49.2754 293.793 49.2754C293.792 49.2754 293.791 49.2754 293.79 49.2754C293.788 49.2754 293.787 49.2754 293.786 49.2754C293.785 49.2754 293.783 49.2754 293.782 49.2754C293.781 49.2754 293.78 49.2754 293.779 49.2754C293.777 49.2754 293.776 49.2754 293.775 49.2754C293.774 49.2754 293.773 49.2754 293.771 49.2754C293.77 49.2754 293.769 49.2754 293.768 49.2754C293.766 49.2754 293.765 49.2754 293.764 49.2754C293.763 49.2754 293.762 49.2754 293.76 49.2754C293.759 49.2754 293.758 49.2754 293.757 49.2754C293.756 49.2754 293.754 49.2754 293.753 49.2754C293.752 49.2754 293.75 49.2754 293.749 49.2754C293.748 49.2754 293.747 49.2754 293.745 49.2754C293.744 49.2754 293.743 49.2754 293.742 49.2754C293.741 49.2754 293.739 49.2754 293.738 49.2754C293.737 49.2754 293.736 49.2754 293.735 49.2754C293.733 49.2754 293.732 49.2754 293.731 49.2754C293.73 49.2754 293.728 49.2754 293.727 49.2754C293.726 49.2754 293.725 49.2754 293.724 49.2754C293.722 49.2754 293.721 49.2754 293.72 49.2754C293.719 49.2754 293.718 49.2754 293.717 49.2754C293.715 49.2754 293.714 49.2754 293.713 49.2754C293.712 49.2754 293.711 49.2754 293.709 49.2754C293.708 49.2754 293.707 49.2754 293.706 49.2754C293.704 49.2754 293.703 49.2754 293.702 49.2754C293.701 49.2754 293.7 49.2754 293.698 49.2754C293.697 49.2754 293.696 49.2754 293.695 49.2754C293.694 49.2754 293.692 49.2754 293.691 49.2754C293.69 49.2754 293.689 49.2754 293.687 49.2754C293.686 49.2754 293.685 49.2754 293.684 49.2754C293.683 49.2754 293.681 49.2754 293.68 49.2754C293.679 49.2754 293.678 49.2754 293.676 49.2754C293.675 49.2754 293.674 49.2754 293.673 49.2754C293.672 49.2754 293.67 49.2754 293.669 49.2754C293.668 49.2754 293.667 49.2754 293.666 49.2754C293.664 49.2754 293.663 49.2754 293.662 49.2754C293.661 49.2754 293.659 49.2754 293.658 49.2754C293.657 49.2754 293.656 49.2754 293.655 49.2754C293.654 49.2754 293.652 49.2754 293.651 49.2754C293.65 49.2754 293.649 49.2754 293.648 49.2754C293.646 49.2754 293.645 49.2754 293.644 49.2754C293.643 49.2754 293.642 49.2754 293.64 49.2754C293.639 49.2754 293.638 49.2754 293.637 49.2754C293.635 49.2754 293.634 49.2754 293.633 49.2754C293.632 49.2754 293.631 49.2754 293.629 49.2754C293.628 49.2754 293.627 49.2754 293.626 49.2754C293.625 49.2754 293.624 49.2754 293.622 49.2754C293.621 49.2754 293.62 49.2754 293.619 49.2754C293.618 49.2754 293.616 49.2754 293.615 49.2754C293.614 49.2754 293.613 49.2754 293.611 49.2754C293.61 49.2754 293.609 49.2754 293.608 49.2754C293.607 49.2754 293.605 49.2754 293.604 49.2754C293.603 49.2754 293.602 49.2754 293.601 49.2754C293.6 49.2754 293.598 49.2754 293.597 49.2754C293.596 49.2754 293.595 49.2754 293.594 49.2754C293.592 49.2754 293.591 49.2754 293.59 49.2754C293.589 49.2754 293.587 49.2754 293.586 49.2754C293.585 49.2754 293.584 49.2754 293.583 49.2754C293.581 49.2754 293.58 49.2754 293.579 49.2754C293.578 49.2754 293.577 49.2754 293.576 49.2754C293.574 49.2754 293.573 49.2754 293.572 49.2754C293.571 49.2754 293.57 49.2754 293.568 49.2754C293.567 49.2754 293.566 49.2754 293.565 49.2754C293.563 49.2754 293.562 49.2754 293.561 49.2754C293.56 49.2754 293.559 49.2754 293.558 49.2754C293.556 49.2754 293.555 49.2754 293.554 49.2754C293.553 49.2754 293.552 49.2754 293.55 49.2754C293.549 49.2754 293.548 49.2754 293.547 49.2754C293.546 49.2754 293.545 49.2754 293.543 49.2754C293.542 49.2754 293.541 49.2754 293.54 49.2754C293.539 49.2754 293.537 49.2754 293.536 49.2754C293.535 49.2754 293.534 49.2754 293.532 49.2754C293.531 49.2754 293.53 49.2754 293.529 49.2754C293.528 49.2754 293.527 49.2754 293.525 49.2754C293.524 49.2754 293.523 49.2754 293.522 49.2754C293.521 49.2754 293.519 49.2754 293.518 49.2754C293.517 49.2754 293.516 49.2754 293.515 49.2754C293.514 49.2754 293.512 49.2754 293.511 49.2754C293.51 49.2754 293.509 49.2754 293.508 49.2754C293.506 49.2754 293.505 49.2754 293.504 49.2754C293.503 49.2754 293.502 49.2754 293.501 49.2754C293.499 49.2754 293.498 49.2754 293.497 49.2754C293.496 49.2754 293.494 49.2754 293.493 49.2754C293.492 49.2754 293.491 49.2754 293.49 49.2754C293.489 49.2754 293.487 49.2754 293.486 49.2754C293.485 49.2754 293.484 49.2754 293.483 49.2754C293.481 49.2754 293.48 49.2754 293.479 49.2754C293.478 49.2754 293.477 49.2754 293.476 49.2754C293.474 49.2754 293.473 49.2754 293.472 49.2754C293.471 49.2754 293.47 49.2754 293.468 49.2754C293.467 49.2754 293.466 49.2754 293.465 49.2754C293.464 49.2754 293.463 49.2754 293.461 49.2754C293.46 49.2754 293.459 49.2754 293.458 49.2754C293.456 49.2754 293.456 49.2754 293.454 49.2754C293.453 49.2754 293.452 49.2754 293.451 49.2754C293.449 49.2754 293.448 49.2754 293.447 49.2754C293.446 49.2754 293.445 49.2754 293.444 49.2754C293.442 49.2754 293.441 49.2754 293.44 49.2754C293.439 49.2754 293.438 49.2754 293.436 49.2754C293.436 49.2754 293.434 49.2754 293.433 49.2754C293.432 49.2754 293.431 49.2754 293.429 49.2754C293.428 49.2754 293.427 49.2754 293.426 49.2754C293.425 49.2754 293.424 49.2754 293.422 49.2754C293.421 49.2754 293.42 49.2754 293.419 49.2754C293.418 49.2754 293.417 49.2754 293.415 49.2754C293.414 49.2754 293.413 49.2754 293.412 49.2754C293.411 49.2754 293.409 49.2754 293.408 49.2754C293.407 49.2754 293.406 49.2754 293.405 49.2754C293.404 49.2754 293.402 49.2754 293.401 49.2754C293.4 49.2754 293.399 49.2754 293.398 49.2754C293.397 49.2754 293.395 49.2754 293.394 49.2754C293.393 49.2754 293.392 49.2754 293.391 49.2754C293.39 49.2754 293.388 49.2754 293.387 49.2754C293.386 49.2754 293.385 49.2754 293.384 49.2754C293.382 49.2754 293.381 49.2754 293.38 49.2754C293.379 49.2754 293.378 49.2754 293.377 49.2754C293.375 49.2754 293.374 49.2754 293.373 49.2754C293.372 49.2754 293.371 49.2754 293.37 49.2754C293.368 49.2754 293.367 49.2754 293.366 49.2754C293.365 49.2754 293.364 49.2754 293.363 49.2754C293.361 49.2754 293.36 49.2754 293.359 49.2754C293.358 49.2754 293.357 49.2754 293.356 49.2754C293.354 49.2754 293.353 49.2754 293.352 49.2754C293.351 49.2754 293.35 49.2754 293.349 49.2754C293.347 49.2754 293.346 49.2754 293.345 49.2754C293.344 49.2754 293.343 49.2754 293.342 49.2754C293.34 49.2754 293.339 49.2754 293.338 49.2754C293.337 49.2754 293.336 49.2754 293.335 49.2754C293.333 49.2754 293.332 49.2754 293.331 49.2754C293.33 49.2754 293.329 49.2754 293.328 49.2754C293.326 49.2754 293.325 49.2754 293.324 49.2754C293.323 49.2754 293.322 49.2754 293.321 49.2754C293.319 49.2754 293.318 49.2754 293.317 49.2754C293.316 49.2754 293.315 49.2754 293.314 49.2754C293.312 49.2754 293.311 49.2754 293.31 49.2754C293.309 49.2754 293.308 49.2754 293.307 49.2754V52.3208ZM295.324 52.3196C296.032 52.2913 296.768 52.263 297.532 52.2346L297.42 49.191C296.653 49.2196 295.914 49.248 295.203 49.2766L295.324 52.3196ZM297.532 52.2346C298.298 52.206 299.064 52.1777 299.83 52.1494L299.718 49.1057C298.952 49.1344 298.186 49.1627 297.42 49.191L297.532 52.2346ZM299.828 52.1494C300.646 52.1201 301.671 52.062 302.9 51.9761L302.689 48.9379C301.478 49.0226 300.49 49.0783 299.719 49.1057L299.828 52.1494ZM302.898 51.9761C304.14 51.8911 305.684 51.7921 307.526 51.6785L307.337 48.6386C305.493 48.7525 303.943 48.8524 302.691 48.9379L302.898 51.9761ZM305.912 50.1586V55.9145H308.951V50.1586H305.912ZM334.455 56.3408V57.8636H335.974V56.3408H334.455ZM310.841 56.3408H309.322V57.8636H310.841V56.3408ZM310.841 26.4954V24.9727H309.322V26.4954H310.841ZM334.455 26.4954H335.974V24.9727H334.455V26.4954ZM334.455 32.4645V33.9872H335.974V32.4645H334.455ZM318.5 32.4645V30.9417H316.98V32.4645H318.5ZM318.5 38.2204H316.98V39.7431H318.5V38.2204ZM331.051 38.2204H332.571V36.6977H331.051V38.2204ZM331.051 44.1895V45.7122H332.571V44.1895H331.051ZM318.5 44.1895V42.6667H316.98V44.1895H318.5ZM318.5 50.3717H316.98V51.8945H318.5V50.3717ZM334.455 50.3717H335.974V48.849H334.455V50.3717ZM334.455 54.8181H310.841V57.8636H334.455V54.8181ZM312.361 56.3408V26.4954H309.322V56.3408H312.361ZM310.841 28.0181H334.455V24.9727H310.841V28.0181ZM332.935 26.4954V32.4645H335.974V26.4954H332.935ZM334.455 30.9417H318.5V33.9872H334.455V30.9417ZM316.98 32.4645V38.2204H320.019V32.4645H316.98ZM318.5 39.7431H331.051V36.6977H318.5V39.7431ZM329.532 38.2204V44.1895H332.571V38.2204H329.532ZM331.051 42.6667H318.5V45.7122H331.051V42.6667ZM316.98 44.1895V50.3717H320.019V44.1895H316.98ZM318.5 51.8945H334.455V48.849H318.5V51.8945ZM332.935 50.3717V56.3408H335.974V50.3717H332.935Z" fill="white"/>
</g>
<defs>
<clipPath id="clip0_1_31">
<rect width="389" height="67" fill="white"/>
</clipPath>
</defs>
</svg>
